<?xml version="1.0" encoding="utf-8"?>
<!-- Uploaded to: SVG Repo, www.svgrepo.com, Generator: SVG Repo Mixer Tools -->
<svg fill="#000000" width="800px" height="800px" viewBox="0 0 32 32" version="1.1" xmlns="http://www.w3.org/2000/svg">
<title>syringe</title>
<path d="M18.064 14.87v-2.492c0-0.205-0.095-0.507-0.767-0.507s-0.767 0.303-0.767 0.507v2.492c0 0.205 0.133 0.438 0.767 0.438s0.767-0.234 0.767-0.438zM15.601 30.863l-0.189-7.299c-0.888-0.033-1.399-0.046-1.873-0.166-0.329-0.083-0.49-0.32-0.49-0.686v-10.469c0-0.241-0.021-0.384-0.406-0.382-0.653 0.005-3.205 0.037-3.205 0.037l0.473-0.816c0.088-0.151 0.169-0.264 0.398-0.264 0.164 0 1.458 0.16 2.343 0.074 0.45-0.044 0.651-0.096 0.853-0.402 0.358-0.543 0.286-1.851-0.362-2.759-0.157-0.22 0.013-0.415 0.287-0.325 0.602 0.196 1.609 0.166 1.609 0.166v-5.125c0-0.174-0.104-0.276-0.314-0.276h-3.649c0 0 0.499-0.974 1.22-1.075 0.788-0.111 2.468-0.096 3.703-0.096s2.914-0.016 3.703 0.096c0.722 0.102 1.22 1.075 1.22 1.075h-3.649c-0.21 0-0.314 0.102-0.314 0.276v5.125c0 0 1.008 0.030 1.609-0.166 0.274-0.089 0.444 0.105 0.287 0.325-0.648 0.908-0.719 2.216-0.362 2.759 0.202 0.307 0.402 0.358 0.853 0.402 0.885 0.086 2.179-0.074 2.343-0.074 0.229 0 0.31 0.113 0.398 0.264l0.473 0.816c0 0-2.552-0.032-3.205-0.037-0.385-0.003-0.406 0.14-0.406 0.382v10.469c0 0.366-0.162 0.603-0.49 0.686-0.474 0.119-0.985 0.133-1.873 0.166l-0.189 7.299c-0.003 0.12-0.187 0.138-0.399 0.138-0.21-0.001-0.395-0.019-0.398-0.138v0zM14.703 15.308c0.634 0 0.767-0.234 0.767-0.438v-2.492c0-0.205-0.095-0.507-0.767-0.507s-0.767 0.303-0.767 0.507v2.492c0 0.205 0.133 0.438 0.767 0.438z"></path>
</svg>